<svg height="512pt" viewBox="0 0 512 512" width="512pt" xmlns="http://www.w3.org/2000/svg"><path d="m179.445312 142.289062v47.714844h10c16.066407 0 30.292969-13.707031 39.03125-34.765625-17.105468-2.832031-33.339843-8.234375-48.277343-15.828125-.242188.96875-.496094 1.929688-.753907 2.878906zm0 0" fill="#fffaeb"/><path d="m282.722656 155.367188c8.703125 1.398437 17.625 2.140624 26.722656 2.140624 9.375 0 18.566407-.789062 27.519532-2.269531-2.035156-4.90625-3.773438-10.207031-5.167969-15.828125-15.167969 7.710938-31.675781 13.167969-49.074219 15.957032zm0 0" fill="#fffaeb"/><path d="m282.71875 12.753906c-58.976562 12.324219-103.273438 64.609375-103.273438 127.246094v2.289062c.257813-.953124.511719-1.910156.75-2.882812 14.941407 7.597656 31.175782 13 48.28125 15.828125 8.953126 1.484375 18.144532 2.273437 27.523438 2.273437 9.097656 0 18.019531-.742187 26.722656-2.140624 17.398438-2.789063 33.90625-8.246094 49.074219-15.957032 1.394531 5.621094 3.132813 10.921875 5.167969 15.828125 8.738281 21.058594 22.964844 34.761719 39.03125 34.761719h10v-50c0-62.636719-44.300782-114.921875-103.277344-127.246094zm0 0" fill="#fffaeb"/><path d="m336.285156 153.539062c-1.742187-4.425781-3.253906-9.148437-4.488281-14.128906-16.542969 8.410156-34.675781 14.140625-53.820313 16.652344 7.195313.941406 14.527344 1.445312 21.976563 1.445312 12.476563 0 24.632813-1.378906 36.332031-3.96875zm0 0" fill="#fcd0ac"/><path d="m349.285156 325.253906c16.691406-20.613281 26.710938-46.820312 26.710938-75.253906h10c16.566406 0 30-13.429688 30-29.996094 0-16.570312-13.433594-30.003906-30-30.003906h-10c-16.492188 0-31.042969-14.449219-39.710938-36.460938-11.699218 2.589844-23.855468 3.96875-36.332031 3.96875-7.453125 0-14.785156-.503906-21.976563-1.449218-7.195312.945312-14.527343 1.449218-21.976562 1.449218-12.484375 0-24.636719-1.382812-36.339844-3.972656-3.277344-.171875-23.214844-10.25-39.710937-10.25v106.714844c0 28.433594 10.023437 54.640625 26.714843 75.253906 17.636719 21.808594 42.734376 37.359375 71.308594 42.703125 28.578125-5.34375 53.671875-20.894531 71.3125-42.703125zm0 0" fill="#fcd0ac"/><path d="m384.039062 348.6875c-10.703124-8.960938-22.34375-16.832031-34.75-23.425781-15.972656 19.738281-38.054687 34.351562-63.292968 40.910156-9.597656 2.492187-19.648438 3.828125-29.996094 3.828125-25.21875 0-48.675781-7.890625-68.046875-21.3125 0 0-8-5.535156-11.957031-10.226562v163.539062h220.003906v-142.472656c-3.839844-3.773438-7.832031-7.382813-11.960938-10.839844zm0 0" fill="#f4ba64"/><path d="m86 502h30v-105.007812c-19 30.566406-30 66.5625-30 105.007812zm0 0" fill="#f9d973" fill-rule="evenodd"/><path d="m396 359.527344v142.472656h60c0-55.628906-23.019531-106.132812-60-142.472656zm0 0" fill="#f9d973" fill-rule="evenodd"/><g fill="#000001"><path d="m256 451.78125c5.519531 0 10-4.476562 10-10v-.476562c0-5.519532-4.480469-10-10-10-5.523438 0-10 4.480468-10 10v.476562c0 5.523438 4.476562 10 10 10zm0 0"/><path d="m10.234375 492h-.234375c-5.523438 0-10 4.476562-10 10 0 5.519531 4.476562 9.996094 10 9.996094h.234375c5.523437 0 10-4.476563 10-9.996094 0-5.523438-4.476563-10-10-10zm0 0"/><path d="m473.03125 492h-7.277344c-3.324218-69.964844-41.382812-133.484375-101.671875-169.84375 12.089844-18.054688 19.785157-39.285156 21.535157-62.15625h.378906c22.054687 0 40-17.941406 40-39.996094 0-18.605468-12.765625-34.285156-30-38.734375v-41.269531c0-77.195312-62.804688-140-140-140-77.195313 0-139.996094 62.804688-139.996094 140v41.269531c-17.234375 4.449219-30 20.128907-30 38.734375 0 22.054688 17.941406 39.996094 40 39.996094h.378906c1.75 22.871094 9.445313 44.105469 21.535156 62.15625-60.289062 36.359375-98.347656 99.878906-101.671874 169.84375h-7.273438c-5.523438 0-10 4.476562-10 10 0 5.519531 4.476562 9.996094 10 9.996094h16.992188c.011718 0 .023437.003906.035156.003906.015625 0 .027344-.003906.039062-.003906h59.925782c.011718 0 .023437.003906.039062.003906.011719 0 .023438-.003906.039062-.003906h279.921876c.011718 0 .023437.003906.039062.003906.011719 0 .023438-.003906.039062-.003906h59.921876c.011718 0 .023437.003906.039062.003906.011719 0 .023438-.003906.035156-.003906h16.996094c5.523438 0 10-4.476563 10-9.996094 0-5.523438-4.476562-10-10-10zm-67.03125-106.394531c23.523438 30.207031 37.671875 67.160156 39.734375 106.394531h-39.734375zm-150.003906-365.605469c66.167968 0 120 53.832031 120 120v40c-14.253906 0-28.113282-17.277344-34.492188-42.996094-.734375-2.957031-2.777344-5.421875-5.550781-6.6875-2.769531-1.269531-5.96875-1.203125-8.6875.179688-22.203125 11.289062-46.179687 17.011718-71.265625 17.011718-25.082031 0-49.0625-5.726562-71.269531-17.011718-2.71875-1.382813-5.917969-1.449219-8.691407-.183594-2.769531 1.269531-4.8125 3.730469-5.546874 6.691406-6.378907 25.71875-20.238282 42.996094-34.492188 43v-40.003906c0-66.167969 53.828125-120 119.996094-120zm-119.996094 220h-10c-11.03125 0-20-8.96875-20-19.996094 0-11.03125 8.96875-20.003906 20-20.003906h10c21.253906 0 40.296875-17.945312 50.449219-46.636719 21.960937 9.390625 45.300781 14.144531 69.550781 14.144531s47.589844-4.75 69.546875-14.140624c10.15625 28.691406 29.195313 46.632812 50.449219 46.632812h10c11.027344 0 20 8.972656 20 20.003906 0 11.027344-8.972656 19.996094-20 19.996094h-10c-5.519532 0-10 4.480469-10 10 0 25.660156-8.832032 49.292969-23.613282 68.023438-.601562.574218-1.132812 1.234374-1.589843 1.96875-20.191407 24.421874-50.707031 40.007812-84.796875 40.007812-34.085938 0-64.601563-15.585938-84.792969-40.003906-.457031-.738282-.988281-1.398438-1.59375-1.972656-14.78125-18.734376-23.609375-42.363282-23.609375-68.023438 0-5.519531-4.476562-10-10-10zm109.996094 139.617188.003906 32.605468c0 5.523438 4.476562 10 10 10s10-4.480468 10-10.003906l-.003906-32.601562c33.753906-2.578126 63.941406-18.109376 85.597656-41.617188 12.546875 7.351562 24.0625 15.988281 34.40625 25.6875v128.3125h-260v-128.3125c10.34375-9.699219 21.855469-18.335938 34.402344-25.683594 21.65625 23.503906 51.839844 39.035156 85.59375 41.613282zm-139.996094 5.984374v106.398438h-39.738281c2.0625-39.234375 16.210937-76.191406 39.738281-106.398438zm0 0"/><path d="m502 492h-.238281c-5.523438 0-10 4.476562-10 10 0 5.519531 4.476562 9.996094 10 9.996094h.238281c5.519531 0 9.996094-4.476563 9.996094-9.996094 0-5.523438-4.476563-10-9.996094-10zm0 0"/><path d="m191 244.023438c4.550781-2.628907 9.734375-4.019532 14.996094-4.019532 5.261718 0 10.449218 1.390625 14.996094 4.019532 1.578124.90625 3.296874 1.339843 4.996093 1.339843 3.453125 0 6.8125-1.792969 8.667969-5 2.761719-4.78125 1.125-10.898437-3.660156-13.660156-7.585938-4.382813-16.230469-6.699219-25-6.699219-8.765625 0-17.414063 2.316406-25 6.699219-4.78125 2.761719-6.421875 8.878906-3.65625 13.660156 2.761718 4.785157 8.878906 6.421875 13.660156 3.660157zm0 0"/><path d="m291 244.023438c4.550781-2.628907 9.738281-4.019532 15-4.019532 5.257812 0 10.445312 1.390625 14.996094 4.019532 1.574218.910156 3.296875 1.339843 4.992187 1.339843 3.457031 0 6.816407-1.792969 8.667969-5 2.761719-4.78125 1.125-10.898437-3.65625-13.660156-7.589844-4.382813-16.234375-6.699219-25-6.699219-8.769531 0-17.414062 2.316406-25.003906 6.699219-4.78125 2.761719-6.421875 8.878906-3.660156 13.660156 2.765624 4.785157 8.878906 6.421875 13.664062 3.660157zm0 0"/><path d="m227.335938 298.671875c-2.761719 4.78125-1.121094 10.898437 3.664062 13.660156 7.589844 4.378907 16.234375 6.695313 24.996094 6.695313 8.765625 0 17.410156-2.316406 25-6.695313 4.785156-2.761719 6.421875-8.878906 3.664062-13.660156-2.761718-4.785156-8.878906-6.421875-13.660156-3.664063-4.558594 2.628907-9.746094 4.019532-15.003906 4.019532-5.257813 0-10.445313-1.390625-15-4.019532-4.785156-2.757812-10.898438-1.121093-13.660156 3.664063zm0 0"/><path d="m183.132812 107.675781c11.429688 9.304688 25.183594 15.347657 39.769532 17.476563.488281.074218.976562.109375 1.457031.109375 4.882813 0 9.15625-3.582031 9.882813-8.558594.796874-5.464844-2.988282-10.542969-8.453126-11.339844-11.015624-1.609375-21.398437-6.171875-30.03125-13.199219-4.285156-3.484374-10.582031-2.839843-14.070312 1.445313-3.484375 4.28125-2.839844 10.578125 1.445312 14.066406zm0 0"/><path d="m253.152344 123.59375c.726562 0 1.46875-.078125 2.207031-.246094.3125-.070312.714844-.179687 1.015625-.28125 5.246094-1.722656 8.105469-7.371094 6.382812-12.617187-1.660156-5.054688-6.960937-7.890625-12.035156-6.554688-5.257812 1.3125-8.519531 6.589844-7.320312 11.902344 1.050781 4.644531 5.179687 7.796875 9.75 7.796875zm0 0"/></g></svg>