<svg height="512pt" viewBox="0 -40 512 512" width="512pt" xmlns="http://www.w3.org/2000/svg"><path d="m137.136719 303.460938c-21.441407 9.148437-36.46875 30.421874-36.46875 55.203124 0 28.625 20.046875 52.550782 46.859375 58.542969 21.441406-9.152343 36.472656-30.421875 36.472656-55.207031 0-28.621094-20.046875-52.546875-46.863281-58.539062zm0 0" fill="#898998"/><path d="m315.667969 97.03125h66.332031v32h-66.332031c-8.839844 0-16-7.160156-16-16 0-8.835938 7.160156-16 16-16zm0 0" fill="#9bf"/><path d="m142.832031 200.710938c0 12.328124 8.597657 22.640624 20.125 25.289062h51.25c14.335938 0 25.957031-11.621094 25.957031-25.957031 0-12.328125-8.597656-22.644531-20.121093-25.292969h-51.253907c-14.335937 0-25.957031 11.621094-25.957031 25.960938zm0 0" fill="#4dbaf6"/><path d="m403.332031 384.667969c0 10.261719 2.582031 19.921875 7.125 28.371093 9.167969 5.675782 19.96875 8.960938 31.542969 8.960938 33.136719 0 60-26.863281 60-60 0-10.265625-2.582031-19.921875-7.125-28.371094-9.164062-5.679687-19.96875-8.964844-31.542969-8.964844-33.136719.003907-60 26.867188-60 60.003907zm0 0" fill="#898998"/><path d="m502 318.03125c0-24.015625-13.234375-44.933594-32.804688-55.886719-1.285156-.078125-2.574218-.128906-3.878906-.128906h-17.984375l-2.3125-7.605469c-2.3125-.253906-4.65625-.394531-7.035156-.394531h-17.984375l-35.566406-116.984375h-10.597656l.050781 145.765625c.007812 13.621094-5.417969 26.683594-15.074219 36.296875-9.59375 9.546875-22.578125 14.90625-36.109375 14.90625h-26.652344c-9.699219 0-18.652343-2.964844-26.070312-8h-1.265625c-27.058594 0-48.40625-23.007812-46.378906-49.992188 1.296874-17.3125-7.035157-32.980468-20.316407-41.992187h-71.933593c-51.226563 0-92.75 41.527344-92.75 92.75v35.234375h276.300781c29.1875 0 55.617187-17.25 67.363281-43.964844zm0 0" fill="#ffb954"/><path d="m420 254.015625h-22.683594c-8.957031 0-16.21875-7.257813-16.21875-16.214844v-7.566406c0-8.957031 7.261719-16.21875 16.21875-16.21875h7.195313zm0 0" fill="#fff"/><path d="m462 362c0 11.046875-8.953125 20-20 20s-20-8.953125-20-20 8.953125-20 20-20 20 8.953125 20 20zm0 0" fill="#686c83"/><path d="m412.519531 143.554688c8.144531 0 14.746094-6.605469 14.746094-14.746094v-31.546875c0-8.144531-6.601563-14.746094-14.746094-14.746094-16.855469 0-30.519531 13.664063-30.519531 30.515625 0 16.859375 13.664062 30.523438 30.519531 30.523438zm0 0" fill="#fe8f8d"/><path d="m261 412c-2.628906 0-5.210938 1.070312-7.070312 2.929688-1.859376 1.859374-2.929688 4.441406-2.929688 7.070312s1.070312 5.210938 2.929688 7.070312c1.859374 1.859376 4.441406 2.929688 7.070312 2.929688s5.210938-1.070312 7.070312-2.929688c1.859376-1.859374 2.929688-4.441406 2.929688-7.070312s-1.070312-5.210938-2.929688-7.070312c-1.859374-1.859376-4.441406-2.929688-7.070312-2.929688zm0 0"/><path d="m442 332c-16.542969 0-30 13.457031-30 30s13.457031 30 30 30 30-13.457031 30-30-13.457031-30-30-30zm0 40c-5.515625 0-10-4.484375-10-10s4.484375-10 10-10 10 4.484375 10 10-4.484375 10-10 10zm0 0"/><path d="m512 318.03125c0-40.8125-33.203125-74.015625-74.015625-74.015625h-10.574219l-28.1875-92.714844c4.167969 1.453125 8.640625 2.253907 13.296875 2.253907 13.644531 0 24.746094-11.101563 24.746094-24.746094v-31.546875c0-13.648438-11.101563-24.746094-24.746094-24.746094-9.589843 0-18.410156 3.355469-25.355469 8.945313l-20.386718-58.5c-1.398438-4.019532-5.1875-6.710938-9.441406-6.710938h-14.667969v-6.25c0-5.523438-4.476563-10-10-10-5.523438 0-10 4.476562-10 10v32.5c0 5.523438 4.476562 10 10 10 5.523437 0 10-4.476562 10-10v-6.25h7.5625l17.695312 50.785156h-52.257812c-14.335938 0-26 11.664063-26 26 0 14.335938 11.664062 26 26 26h20.839843l.050782 135.765625c.003906 10.882813-4.417969 21.527344-12.132813 29.207031-7.773437 7.730469-18.09375 11.992188-29.058593 11.992188h-26.652344c-10.273438 0-19.777344-4.148438-26.765625-11.679688s-10.414063-17.320312-9.644531-27.5625c1.117187-14.914062-3.796876-29.75-13.515626-41.058593 17.671876-2.261719 31.375-17.382813 31.375-35.65625 0-19.828125-16.128906-35.957031-35.957031-35.957031h-84.082031c-19.828125 0-35.960938 16.128906-35.960938 35.957031 0 5.78125 1.382813 11.242187 3.816407 16.089843-54.449219 2.5-97.980469 47.574219-97.980469 102.632813v43.234375c0 5.523438 4.476562 10 10 10h44.726562c2.238282 15.566406 9.613282 29.492188 20.351563 40h-65.078125c-5.523438 0-10 4.476562-10 10s4.476562 10 10 10h212.332031c5.523438 0 10-4.476562 10-10s-4.476562-10-10-10h-49.410156c10.738281-10.507812 18.113281-24.433594 20.351563-40h120.363281c23.09375 0 44.671875-9.519531 60.148437-25.550781-1.164062 5.070312-1.785156 10.28125-1.785156 15.550781 0 19.570312 8.085938 37.285156 21.078125 50h-93.410156c-5.523438 0-10 4.476562-10 10s4.476562 10 10 10h202.332031c5.523438 0 10-4.476562 10-10s-4.476562-10-10-10h-11.078125c12.992187-12.714844 21.078125-30.429688 21.078125-50 0-11.988281-3.128906-23.707031-8.871094-34.035156 4.988282-.558594 8.871094-4.789063 8.871094-9.933594zm-111.574219-94.015625 6.082031 20h-9.191406c-3.429687 0-6.21875-2.789063-6.21875-6.214844v-7.566406c0-3.429687 2.789063-6.21875 6.21875-6.21875zm12.09375-131.5c2.617188 0 4.746094 2.128906 4.746094 4.746094v31.546875c0 2.617187-2.128906 4.746094-4.746094 4.746094-11.3125 0-20.519531-9.207032-20.519531-20.519532 0-11.316406 9.203125-20.519531 20.519531-20.519531zm-102.851562 20.519531c0-3.308594 2.691406-6 6-6h56.332031v12h-56.332031c-3.308594 0-6-2.691406-6-6zm-179.542969 71.050782h84.085938c8.796874 0 15.957031 7.15625 15.957031 15.957031 0 8.796875-7.160157 15.957031-15.957031 15.957031h-84.085938c-8.800781 0-15.957031-7.160156-15.957031-15.957031 0-8.800781 7.15625-15.957031 15.957031-15.957031zm-6.125 227.914062c-24.144531 0-44.347656-17.203125-48.992188-40h97.984376c-4.644532 22.796875-24.847657 40-48.992188 40zm247.847656-97.992188c-10.152344 23.078126-32.996094 37.992188-58.210937 37.992188h-293.636719v-33.234375c0-45.625 37.121094-82.75 82.75-82.75h73.199219c10.273437 0 19.78125 4.148437 26.769531 11.679687s10.410156 17.320313 9.644531 27.566407c-1.171875 15.625 4.269531 31.175781 14.925781 42.664062 10.65625 11.484375 25.757813 18.074219 41.425782 18.074219h26.652344c16.289062 0 31.617187-6.328125 43.164062-17.820312 11.460938-11.40625 18.027344-27.21875 18.023438-43.386719l-.050782-135.757813h18.085938l19.804687 65.148438c-13.085937 1.457031-23.296875 12.582031-23.296875 26.050781v7.566406c0 14.457031 11.761719 26.214844 26.21875 26.214844h40.667969c26.367187 0 48.382813 18.996094 53.085937 44.019531h-110.070312c-3.964844 0-7.558594 2.34375-9.152344 5.972656zm70.152344 97.992188c-27.570312 0-50-22.429688-50-50 0-12.78125 4.703125-24.707031 13.316406-33.964844h73.363282c8.617187 9.257813 13.320312 21.183594 13.320312 33.964844 0 27.570312-22.429688 50-50 50zm0 0"/><path d="m460.730469 113.039062c0 5.523438 4.480469 10 10 10h31.269531c5.523438 0 10-4.476562 10-10 0-5.523437-4.476562-10-10-10h-31.269531c-5.519531 0-10 4.476563-10 10zm0 0"/><path d="m464.152344 166.179688c1.953125 1.953124 4.515625 2.929687 7.074218 2.929687 2.558594 0 5.117188-.976563 7.070313-2.925781 3.90625-3.902344 3.90625-10.234375.003906-14.140625l-10.941406-10.953125c-3.902344-3.90625-10.230469-3.910156-14.140625-.003906-3.90625 3.902343-3.910156 10.234374-.007812 14.140624zm0 0"/><path d="m460.339844 87.824219c2.554687 0 5.113281-.976563 7.066406-2.925781l10.875-10.867188c3.90625-3.902344 3.910156-10.234375.007812-14.140625-3.902343-3.910156-10.234374-3.914063-14.140624-.007813l-10.878907 10.867188c-3.90625 3.902344-3.910156 10.234375-.007812 14.140625 1.957031 1.957031 4.515625 2.933594 7.078125 2.933594zm0 0"/><path d="m154 312h-89.5c-5.523438 0-10 4.476562-10 10s4.476562 10 10 10h89.5c5.523438 0 10-4.476562 10-10s-4.476562-10-10-10zm0 0"/><path d="m154 272h-89.5c-5.523438 0-10 4.476562-10 10s4.476562 10 10 10h89.5c5.523438 0 10-4.476562 10-10s-4.476562-10-10-10zm0 0"/></svg>