<?xml version="1.0" encoding="UTF-8"?>
<!DOCTYPE svg PUBLIC "-//W3C//DTD SVG 1.1//EN" "http://www.w3.org/Graphics/SVG/1.1/DTD/svg11.dtd">
<!-- Creator: CorelDRAW X7 -->
<svg xmlns="http://www.w3.org/2000/svg" xml:space="preserve" width="0.474972in" height="0.482209in" version="1.1" style="shape-rendering:geometricPrecision; text-rendering:geometricPrecision; image-rendering:optimizeQuality; fill-rule:evenodd; clip-rule:evenodd"
viewBox="0 0 54 55"
 xmlns:xlink="http://www.w3.org/1999/xlink">
 <defs>
  <style type="text/css">
   <![CDATA[
    .fil1 {fill:#FEFEFE}
    .fil0 {fill:#E7E8E8}
    .fil10 {fill:black}
    .fil3 {fill:#B0B3B7}
    .fil2 {fill:#C3C8D1}
    .fil5 {fill:#D8DCE5}
    .fil4 {fill:#E4EAF8}
    .fil7 {fill:#ED3A3A}
    .fil9 {fill:#F9B428}
    .fil6 {fill:#FF5050}
    .fil8 {fill:#FFC850}
   ]]>
  </style>
 </defs>
 <g id="Layer_x0020_1">
  <metadata id="CorelCorpID_0Corel-Layer"/>
  <g id="_621900136">
   <circle class="fil0" cx="27" cy="28" r="27"/>
   <circle class="fil1" cx="25" cy="25" r="25"/>
  </g>
  <g id="_621900088">
   <path class="fil2" d="M52 44l-6 -33 0 27 -9 8 13 0c1,0 2,-1 2,-2z"/>
   <path class="fil3" d="M46 11l0 27 -9 8 3 0 7 -7c1,0 1,-1 1,-1l0 -16 -2 -11z"/>
   <path class="fil4" d="M46 38l0 -27c0,-1 -1,-2 -2,-2l-41 0c-1,0 -1,1 -1,2l0 36c0,1 0,2 1,2l32 0 11 -11z"/>
   <g>
    <path class="fil5" d="M4 47l0 -36c0,-1 0,-2 1,-2l-2 0c-1,0 -1,1 -1,2l0 36c0,1 0,2 1,2l2 0c-1,0 -1,-1 -1,-2z"/>
    <path class="fil5" d="M46 38l-10 0c0,0 -1,0 -1,1l0 10 11 -11z"/>
   </g>
   <path class="fil2" d="M37 39c0,-1 1,-1 1,-1l-2 0c0,0 -1,0 -1,1l0 10 2 -3 0 -7z"/>
   <path class="fil6" d="M44 9l-41 0c-1,0 -1,1 -1,2l0 7 44 0 0 -7c0,-1 -1,-2 -2,-2z"/>
   <path class="fil7" d="M4 11c0,-1 0,-2 1,-2l-2 0c-1,0 -1,1 -1,2l0 7 2 0 0 -7 0 0z"/>
   <g>
    <circle class="fil8" cx="20" cy="26" r="2"/>
    <circle class="fil8" cx="28" cy="26" r="2"/>
    <circle class="fil8" cx="36" cy="26" r="2"/>
    <circle class="fil8" cx="20" cy="33" r="2"/>
    <circle class="fil8" cx="36" cy="33" r="2"/>
    <circle class="fil8" cx="28" cy="33" r="2"/>
    <circle class="fil8" cx="28" cy="41" r="2"/>
    <circle class="fil8" cx="20" cy="41" r="2"/>
   </g>
   <g>
    <path class="fil9" d="M19 26c0,-1 1,-2 2,-3 -1,0 -1,0 -1,0 -2,0 -3,1 -3,3 0,1 1,2 3,2 0,0 0,0 1,0 -1,-1 -2,-1 -2,-2z"/>
    <path class="fil9" d="M27 26c0,-1 1,-2 2,-3 -1,0 -1,0 -1,0 -2,0 -3,1 -3,3 0,1 1,2 3,2 0,0 0,0 1,0 -1,-1 -2,-1 -2,-2z"/>
    <path class="fil9" d="M36 26c0,-1 0,-2 1,-3 0,0 -1,0 -1,0 -1,0 -2,1 -2,3 0,1 1,2 2,2 0,0 1,0 1,0 -1,-1 -1,-1 -1,-2z"/>
    <path class="fil9" d="M19 33c0,-1 1,-2 2,-2 -1,0 -1,0 -1,0 -2,0 -3,1 -3,2 0,1 1,3 3,3 0,0 0,-1 1,-1 -1,0 -2,-1 -2,-2z"/>
    <path class="fil9" d="M36 33c0,-1 0,-2 1,-2 0,0 -1,0 -1,0 -1,0 -2,1 -2,2 0,1 1,3 2,3 0,0 1,-1 1,-1 -1,0 -1,-1 -1,-2z"/>
    <path class="fil9" d="M27 33c0,-1 1,-2 2,-2 -1,0 -1,0 -1,0 -2,0 -3,1 -3,2 0,1 1,3 3,3 0,0 0,-1 1,-1 -1,0 -2,-1 -2,-2z"/>
    <path class="fil9" d="M27 41c0,-1 1,-2 2,-2 -1,0 -1,-1 -1,-1 -2,0 -3,2 -3,3 0,1 1,2 3,2 0,0 0,0 1,0 -1,0 -2,-1 -2,-2z"/>
    <path class="fil9" d="M19 41c0,-1 1,-2 2,-2 -1,0 -1,-1 -1,-1 -2,0 -3,2 -3,3 0,1 1,2 3,2 0,0 0,0 1,0 -1,0 -2,-1 -2,-2z"/>
   </g>
   <path class="fil10" d="M20 22c-2,0 -3,2 -3,4 0,1 1,3 3,3 1,0 3,-2 3,-3 0,-2 -2,-4 -3,-4zm0 5c-1,0 -2,-1 -2,-1 0,-1 1,-2 2,-2 1,0 1,1 1,2 0,0 0,1 -1,1z"/>
   <path class="fil10" d="M28 29c1,0 3,-2 3,-3 0,-2 -2,-4 -3,-4 -2,0 -3,2 -3,4 0,1 1,3 3,3zm0 -5c1,0 1,1 1,2 0,0 0,1 -1,1 -1,0 -2,-1 -2,-1 0,-1 1,-2 2,-2z"/>
   <path class="fil10" d="M36 29c2,0 3,-2 3,-3 0,-2 -1,-4 -3,-4 -2,0 -3,2 -3,4 0,1 1,3 3,3zm0 -5c1,0 1,1 1,2 0,0 0,1 -1,1 -1,0 -2,-1 -2,-1 0,-1 1,-2 2,-2z"/>
   <path class="fil10" d="M20 30c-2,0 -3,1 -3,3 0,2 1,3 3,3 1,0 3,-1 3,-3 0,-2 -2,-3 -3,-3zm0 5c-1,0 -2,-1 -2,-2 0,-1 1,-1 2,-1 1,0 1,0 1,1 0,1 0,2 -1,2z"/>
   <path class="fil10" d="M36 36c2,0 3,-1 3,-3 0,-2 -1,-3 -3,-3 -2,0 -3,1 -3,3 0,2 1,3 3,3zm0 -4c1,0 1,0 1,1 0,1 0,2 -1,2 -1,0 -2,-1 -2,-2 0,-1 1,-1 2,-1z"/>
   <path class="fil10" d="M28 36c1,0 3,-1 3,-3 0,-2 -2,-3 -3,-3 -2,0 -3,1 -3,3 0,2 1,3 3,3zm0 -4c1,0 1,0 1,1 0,1 0,2 -1,2 -1,0 -2,-1 -2,-2 0,-1 1,-1 2,-1z"/>
   <path class="fil10" d="M28 44c1,0 3,-2 3,-3 0,-2 -2,-3 -3,-3 -2,0 -3,1 -3,3 0,1 1,3 3,3zm0 -5c1,0 1,1 1,2 0,1 0,1 -1,1 -1,0 -2,0 -2,-1 0,-1 1,-2 2,-2z"/>
   <path class="fil10" d="M20 38c-2,0 -3,1 -3,3 0,1 1,3 3,3 1,0 3,-2 3,-3 0,-2 -2,-3 -3,-3zm0 4c-1,0 -2,0 -2,-1 0,-1 1,-2 2,-2 1,0 1,1 1,2 0,1 0,1 -1,1z"/>
   <path class="fil10" d="M9 28c0,0 1,0 1,0 0,0 0,0 0,0l1 -1 2 1c0,0 0,0 0,0 0,0 1,0 1,0 0,-1 0,-1 0,-1l-1 -1 1 -2c0,0 0,0 0,-1 -1,0 -1,0 -1,0l-2 1 -1 -1c0,0 0,0 -1,0 0,1 0,1 0,1l1 2 -1 1c0,0 0,0 0,1z"/>
   <path class="fil10" d="M9 35c0,1 1,1 1,1 0,0 0,0 0,-1l1 -1 2 1c0,1 0,1 0,1 0,0 1,0 1,-1 0,0 0,0 0,-1l-1 -1 1 -1c0,0 0,-1 0,-1 -1,0 -1,0 -1,0l-2 1 -1 -1c0,0 0,0 -1,0 0,0 0,1 0,1l1 1 -1 1c0,1 0,1 0,1z"/>
   <path class="fil10" d="M14 39c-1,-1 -1,-1 -1,0l-2 1 -1 -1c0,-1 0,-1 -1,0 0,0 0,0 0,1l1 1 -1 1c0,0 0,1 0,1 0,0 1,0 1,0 0,0 0,0 0,0l1 -1 2 1c0,0 0,0 0,0 0,0 1,0 1,0 0,0 0,-1 0,-1l-1 -1 1 -1c0,-1 0,-1 0,-1z"/>
   <path class="fil10" d="M53 44l-2 -11c0,0 -1,-1 -1,0 0,0 -1,0 -1,0l2 11c1,1 0,2 -1,2l-11 0 7 -8c1,0 1,0 1,0l0 -19 2 11c0,0 0,1 1,1 0,-1 0,-1 0,-1l-3 -19c0,-1 -1,-2 -3,-2l-6 0 0 -3c0,0 -1,-1 -1,-1 0,0 -1,1 -1,1l0 3 -5 0 0 -3c0,0 0,-1 -1,-1 0,0 0,1 0,1l0 3 -6 0 0 -3c0,0 0,-1 0,-1 -1,0 -1,1 -1,1l0 3 -5 0 0 -3c0,0 -1,-1 -1,-1 0,0 -1,1 -1,1l0 3 -5 0 0 -3c0,0 0,-1 -1,-1 0,0 0,1 0,1l0 3 -7 0c-1,0 -2,1 -2,2l0 0 0 36c0,1 1,2 2,2l19 0c0,0 1,0 1,-1 0,0 -1,0 -1,0l-19 0c0,0 -1,-1 -1,-1l0 -28 43 0 0 18 -9 0c-1,0 -2,1 -2,2l0 9 -9 0c0,0 0,0 0,0 0,1 0,1 0,1l10 0c0,0 1,0 1,0l2 -2 12 0c2,0 3,-1 3,-3zm-51 -27l0 -6c0,-1 1,-1 1,-1l7 0 0 4c0,0 0,0 0,0 1,0 1,0 1,0l0 -4 5 0 0 4c0,0 1,0 1,0 0,0 1,0 1,0l0 -4 5 0 0 4c0,0 0,0 1,0 0,0 0,0 0,0l0 -4 6 0 0 4c0,0 0,0 0,0 1,0 1,0 1,0l0 -4 5 0 0 4c0,0 1,0 1,0 0,0 1,0 1,0l0 -4 6 0c1,0 1,0 1,1l0 6 -43 0zm34 22c0,0 0,0 0,0l8 0c-1,0 -7,7 -8,8l0 -8 0 0z"/>
   <g>
   </g>
   <g>
   </g>
   <g>
   </g>
   <g>
   </g>
   <g>
   </g>
   <g>
   </g>
   <g>
   </g>
   <g>
   </g>
   <g>
   </g>
   <g>
   </g>
   <g>
   </g>
   <g>
   </g>
   <g>
   </g>
   <g>
   </g>
   <g>
   </g>
  </g>
 </g>
</svg>
