<?xml version="1.0" encoding="UTF-8"?>
<!DOCTYPE svg PUBLIC "-//W3C//DTD SVG 1.1//EN" "http://www.w3.org/Graphics/SVG/1.1/DTD/svg11.dtd">
<!-- Creator: CorelDRAW X7 -->
<svg xmlns="http://www.w3.org/2000/svg" xml:space="preserve" width="0.482811in" height="0.503657in" version="1.1" style="shape-rendering:geometricPrecision; text-rendering:geometricPrecision; image-rendering:optimizeQuality; fill-rule:evenodd; clip-rule:evenodd"
viewBox="0 0 136 141"
 xmlns:xlink="http://www.w3.org/1999/xlink">
 <defs>
  <style type="text/css">
   <![CDATA[
    .fil1 {fill:#FEFEFE}
    .fil0 {fill:#E7E8E8}
    .fil8 {fill:black}
    .fil3 {fill:#00AAF0}
    .fil2 {fill:#00C3FF}
    .fil9 {fill:#4D4D4D}
    .fil12 {fill:#754C24}
    .fil14 {fill:#CCCCCC}
    .fil7 {fill:#D8DCE5}
    .fil6 {fill:#E4EAF8}
    .fil5 {fill:#E59770}
    .fil11 {fill:#E6E6E6}
    .fil4 {fill:#F0A479}
    .fil16 {fill:#F29200}
    .fil13 {fill:#F8CF26}
    .fil15 {fill:#FBB03B}
    .fil10 {fill:#FF1D25}
   ]]>
  </style>
 </defs>
 <g id="Layer_x0020_1">
  <metadata id="CorelCorpID_0Corel-Layer"/>
  <g id="_738131200">
   <g>
    <circle class="fil0" cx="68" cy="72" r="67"/>
    <circle class="fil1" cx="64" cy="66" r="63"/>
   </g>
   <g>
    <g>
     <path class="fil2" d="M32 88c-7,2 -21,8 -28,10 -2,1 -2,2 -2,4l14 36c0,1 2,2 3,1 3,-1 26,-9 29,-10l-16 -41z"/>
     <path class="fil3" d="M45 123l0 0c-3,1 -28,10 -31,11l2 4c0,1 2,2 3,1 3,-1 26,-9 29,-10l-2 -6 -1 0z"/>
     <path class="fil4" d="M96 87c0,0 -1,-7 -8,-7 -19,0 -22,0 -26,1l0 0 -16 7 12 31c13,-5 8,-4 31,-4 2,0 8,-1 13,-6 0,0 0,0 0,0l29 -31c1,-1 5,-7 0,-12l0 0c-5,-5 -11,1 -12,1l-23 20z"/>
     <polygon class="fil5" points="53,85 46,88 58,119 65,117 "/>
     <path class="fil6" d="M43 84l-11 4 15 41 11 -4c1,-1 2,-2 1,-3l-13 -37c-1,-1 -2,-2 -3,-1z"/>
     <path class="fil7" d="M59 122l-1 -4c0,0 -1,0 -1,0l-12 5 2 6 11 -4c1,-1 2,-2 1,-3z"/>
     <path class="fil8" d="M133 64c0,0 0,0 0,0 -5,-4 -11,-2 -15,1l-21 18c-1,-3 -4,-5 -9,-5 -19,0 -22,-1 -27,1 0,0 0,0 0,0l-13 6 0 -1c-1,-2 -4,-3 -6,-2l0 0c0,0 0,0 0,0 -5,1 -29,11 -39,14 -2,1 -4,4 -3,7l14 35c1,3 4,4 6,3 3,-1 34,-13 39,-14 0,0 0,0 0,0l0 0c2,-1 3,-4 2,-6l0 -1c7,-3 7,-3 15,-3 1,0 2,-1 2,-2 0,-1 -1,-2 -2,-2 0,0 0,0 0,0 -8,0 -9,1 -16,4l-11 -28 14 -6c4,-2 6,-1 25,-1 3,0 4,1 5,2 1,1 1,2 1,3 0,0 -1,4 -4,5 -6,0 -17,2 -17,2 -2,0 -2,1 -2,2 0,1 1,2 2,2 0,0 0,0 0,0 0,0 12,-2 17,-3 6,0 7,-5 8,-7l23 -20c0,0 0,0 0,0l0 0c2,-2 6,-4 9,-1 4,4 0,8 -1,9 0,1 -29,31 -29,31 0,0 0,0 0,0 -4,5 -9,6 -11,6 -2,0 -3,0 -4,0 0,0 0,0 0,0 -1,0 -2,1 -2,2 0,1 1,2 2,2 1,0 2,0 4,0 0,0 0,0 0,0 2,0 9,-1 14,-7 29,-31 29,-31 29,-31 0,0 0,0 0,0 3,-3 6,-9 1,-15zm-114 73c-1,1 -1,0 -1,0l-14 -36c0,0 0,-1 1,-1 8,-3 20,-8 26,-10l14 38c-7,2 -24,8 -26,9zm38 -14l-8 3c-1,-2 -14,-35 -15,-37l9 -4c0,0 0,0 0,0 1,0 1,0 1,1 1,2 13,35 14,36 0,0 0,1 -1,1z"/>
    </g>
    <g>
     <g>
      <path class="fil9" d="M119 43c2,5 -1,12 -7,13 -6,2 -12,-1 -14,-7l21 -6zm0 0l0 0 0 0z"/>
     </g>
     <path class="fil10" d="M48 44l-7 2 1 6 5 -2 1 -6zm0 0z"/>
     <path class="fil11" d="M106 8c0,0 -1,0 -1,0l-17 6c-1,0 -1,0 -1,0 0,1 0,1 0,2l6 9c0,1 1,1 2,1l13 -4c0,-1 1,-1 1,-2l-2 -11c0,0 -1,-1 -1,-1zm-7 5l3 8 -3 1 -2 -8 2 -1zm-9 3l4 -1 3 7 -2 1 -5 -7zm16 3l-2 1 -2 -8 2 -1 2 8zm0 0z"/>
     <path class="fil12" d="M55 29l14 -5 2 5 -14 5 -2 -5zm0 0z"/>
     <path class="fil13" d="M54 64l-4 1 -3 -7c-3,-11 2,-22 13,-25l10 -3 8 26 -24 8z"/>
     <g>
      <path class="fil9" d="M74 57c2,6 -1,12 -7,14 -5,2 -12,-1 -13,-7l20 -7zm0 0l0 0 0 0z"/>
     </g>
     <g>
      <path class="fil14" d="M69 59c1,3 0,6 -3,7 -3,1 -6,-1 -7,-4l10 -3zm0 0l0 0 0 0z"/>
     </g>
     <g>
      <path class="fil14" d="M114 44c1,3 -1,6 -4,7 -3,1 -6,0 -7,-3l11 -4zm0 0l0 0 0 0z"/>
     </g>
     <path class="fil15" d="M97 50l26 -9c-3,-9 -13,-14 -23,-11l-5 2c0,0 2,18 2,18zm0 0z"/>
     <path class="fil15" d="M77 51l13 -5 2 6 -14 4 -1 -5zm0 0z"/>
     <path class="fil13" d="M79 12l9 15 2 19 2 6 5 -2 -3 -25 -10 -14 -5 1zm0 0z"/>
     <g>
      <path class="fil16" d="M76 4l9 -3 3 8 -9 3 -3 -8zm0 0z"/>
      <path class="fil16" d="M58 39l10 -3 0 3 -9 3 -1 -3zm0 0z"/>
      <path class="fil16" d="M65 41l4 -1 1 3 -4 1 -1 -3zm0 0z"/>
     </g>
     <path class="fil9" d="M72 9l9 -3 1 2 -9 3 -1 -2zm0 0z"/>
     <path class="fil8" d="M58 39l10 -3 0 3 -9 3 -1 -3zm0 0z"/>
     <path class="fil8" d="M65 41l4 -1 1 3 -4 1 -1 -3zm0 0z"/>
     <path class="fil8" d="M127 53l-1 -3 -7 3c2,-3 2,-6 2,-10l2 0c1,-1 2,-1 1,-2 -3,-10 -14,-16 -24,-12l-4 1 0 -4 12 -4c0,-1 1,-1 1,-2l-2 -11c0,0 -1,-1 -1,-1 0,0 -1,0 -1,0l-17 6 -2 -3 2 0c1,-1 1,-1 1,-2l-2 -8c-1,-1 -1,-1 -2,-1l-9 3c-1,0 -1,1 -1,2l1 2 -4 2 1 2 4 -1 0 3c0,0 0,0 0,0 1,0 1,0 1,0l8 14 2 18 -10 4 -6 -19c0,0 1,-1 0,-1l-1 -5c0,-1 -1,-2 -2,-1l-14 4c-1,1 -1,1 -1,2l1 4c-4,3 -6,6 -8,10 0,0 0,0 0,0l-7 2c-1,0 -1,1 -1,2l2 5c0,1 1,1 2,1l2 -1c0,2 0,4 1,6l2 8c0,0 1,1 2,1l3 -1c1,3 4,5 7,6l-11 4 0 2 78 -25zm-53 14c2,-2 3,-6 2,-9l21 -7c2,3 4,5 7,7l-30 9zm38 -12c-5,2 -10,0 -12,-5l3 -1c1,3 5,5 8,4 3,-1 5,-5 4,-8l3 -1c1,5 -2,10 -6,11l0 0zm-7 -6l8 -3c0,2 -2,3 -3,4 -2,0 -4,0 -5,-1l0 0zm16 -9l-23 8c0,-3 -1,-10 -1,-16l4 -1c8,-3 17,2 20,9l0 0zm-22 -18l-2 -8 2 -1 3 8 -3 1zm7 -3l-2 1 -2 -8 2 -1 2 8zm-12 -4l3 7 -2 1 -5 -7 4 -1zm-16 -8l0 -2 6 -2 2 5 -6 2 -1 -1 3 -1 -1 -2 -3 1zm11 19l-8 -13 2 -1 10 13 2 24 -3 1 -1 -4 -2 -19c0,-1 0,-1 0,-1l0 0zm0 22l1 3 -11 3 -1 -3 11 -3zm-31 -16l-1 -2 12 -4 0 2 -11 4zm-13 17l-2 1 -1 -3 3 -1 0 2c0,0 0,1 0,1l0 0zm3 8c0,-2 -1,-5 0,-7l0 -2c1,-6 6,-12 12,-14l9 -3 8 24 -27 8 -2 -6zm20 4c0,1 -1,3 -3,3 -1,1 -3,0 -4,-1l7 -2zm-13 4l3 -1c2,3 5,4 8,3 3,-1 5,-4 5,-7l2 -1c1,5 -1,9 -6,11 -5,1 -10,-1 -12,-5l0 0zm0 0z"/>
    </g>
   </g>
  </g>
 </g>
</svg>
