<?xml version="1.0" encoding="UTF-8"?>
<!DOCTYPE svg PUBLIC "-//W3C//DTD SVG 1.1//EN" "http://www.w3.org/Graphics/SVG/1.1/DTD/svg11.dtd">
<!-- Creator: CorelDRAW X7 -->
<svg xmlns="http://www.w3.org/2000/svg" xml:space="preserve" width="0.474972in" height="0.482209in" version="1.1" style="shape-rendering:geometricPrecision; text-rendering:geometricPrecision; image-rendering:optimizeQuality; fill-rule:evenodd; clip-rule:evenodd"
viewBox="0 0 292 297"
 xmlns:xlink="http://www.w3.org/1999/xlink">
 <defs>
  <style type="text/css">
   <![CDATA[
    .fil1 {fill:#FEFEFE}
    .fil0 {fill:#E7E8E8}
    .fil6 {fill:black}
    .fil5 {fill:#E7343F}
    .fil4 {fill:#FF4A4A}
    .fil3 {fill:#FFBB24}
    .fil2 {fill:#FFDB56}
   ]]>
  </style>
 </defs>
 <g id="Layer_x0020_1">
  <metadata id="CorelCorpID_0Corel-Layer"/>
  <g id="_747147760">
   <circle class="fil0" cx="146" cy="151" r="146"/>
   <circle class="fil1" cx="138" cy="138" r="138"/>
  </g>
  <g id="_747131488">
   <ellipse class="fil2" cx="77" cy="262" rx="43" ry="17"/>
   <path class="fil3" d="M116 255c-6,6 -21,10 -39,10 -17,0 -32,-4 -39,-10 -2,2 -4,5 -4,7 0,10 20,18 43,18 24,0 43,-8 43,-18 0,-2 -1,-5 -4,-7z"/>
   <path class="fil4" d="M77 98c-34,0 -62,28 -62,63 0,52 62,100 62,100 0,0 63,-48 63,-100 0,-35 -28,-63 -63,-63zm0 88c-13,0 -25,-12 -25,-25 0,-14 12,-25 25,-25 14,0 25,11 25,25 0,13 -11,25 -25,25z"/>
   <path class="fil5" d="M77 98c-2,0 -4,1 -7,1 31,3 55,30 55,62 0,41 -38,80 -55,94 5,4 7,6 7,6 0,0 63,-48 63,-100 0,-35 -28,-63 -63,-63z"/>
   <ellipse class="fil2" cx="229" cy="143" rx="33" ry="13"/>
   <path class="fil3" d="M257 136c-6,4 -16,6 -28,6 -11,0 -22,-2 -28,-6 -3,2 -5,4 -5,7 0,7 15,13 33,13 19,0 33,-6 33,-13 0,-3 -1,-5 -5,-7z"/>
   <path class="fil4" d="M229 17c-26,0 -48,21 -48,48 0,40 48,77 48,77 0,0 48,-37 48,-77 0,-27 -21,-48 -48,-48zm0 67c-10,0 -19,-8 -19,-19 0,-11 9,-19 19,-19 11,0 19,8 19,19 0,11 -8,19 -19,19z"/>
   <path class="fil5" d="M229 17c-2,0 -4,0 -7,1 23,3 41,23 41,47 0,30 -27,59 -41,71 5,4 7,6 7,6 0,0 48,-37 48,-77 0,-27 -21,-48 -48,-48z"/>
   <path class="fil6" d="M77 94c-36,0 -66,30 -66,67 0,22 11,47 32,72 3,4 6,8 9,11 -13,4 -22,10 -22,18 0,14 25,22 47,22 23,0 47,-8 47,-22 0,-8 -8,-14 -22,-18 6,-6 12,-13 17,-20 1,-2 1,-5 -1,-6 -1,-1 -4,-1 -5,1 -7,9 -14,17 -21,24 0,0 -1,0 -1,1 -6,6 -11,10 -14,12 -2,-2 -7,-6 -13,-12 0,0 -1,-1 -2,-2 -18,-18 -43,-49 -43,-81 0,-32 26,-59 58,-59 33,0 59,27 59,59 0,14 -5,29 -15,45 -1,2 0,4 2,5 2,1 4,1 5,-1 10,-17 16,-34 16,-49 0,-37 -30,-67 -67,-67zm0 171c1,0 2,0 3,0 0,-1 7,-6 16,-15 13,3 20,8 20,12 0,3 -4,6 -10,9 -7,3 -18,5 -29,5 -23,0 -39,-8 -39,-14 0,-4 8,-9 21,-12 9,9 15,14 16,15 1,0 1,0 2,0z"/>
   <path class="fil6" d="M54 150c-2,-1 -4,1 -4,3 -1,2 -2,5 -2,8 0,16 13,29 29,29 16,0 29,-13 29,-29 0,-16 -13,-29 -29,-29 -6,0 -12,2 -17,6 -2,1 -2,3 -1,5 2,2 4,2 6,1 3,-3 8,-4 12,-4 12,0 21,9 21,21 0,11 -9,21 -21,21 -11,0 -21,-10 -21,-21 0,-2 1,-4 1,-6 1,-2 0,-4 -3,-5z"/>
   <path class="fil6" d="M266 143c0,-6 -6,-12 -16,-15 2,-2 4,-4 6,-7 17,-19 25,-38 25,-56 0,-29 -23,-52 -52,-52 -21,0 -39,13 -47,32 -1,2 0,4 2,5 2,1 4,0 5,-2 7,-16 23,-27 40,-27 25,0 44,20 44,44 0,33 -34,64 -44,72 -2,-2 -5,-4 -9,-8 0,-1 -1,-2 -2,-2 -13,-14 -33,-38 -33,-62 0,-2 -1,-4 -4,-4 -2,0 -4,2 -4,4 0,18 9,37 25,56 2,3 5,5 7,7 -11,3 -17,9 -17,15 0,5 5,10 13,13 6,3 15,4 24,4 10,0 18,-1 25,-4 8,-3 12,-8 12,-13zm-37 9c-18,0 -29,-6 -29,-9 0,-2 5,-6 15,-8 7,6 12,10 12,11 1,0 2,0 2,0 1,0 2,0 3,0 0,-1 5,-5 12,-11 4,1 8,2 11,4 2,1 3,3 3,4 0,3 -10,9 -29,9z"/>
   <path class="fil6" d="M252 65c0,-13 -10,-23 -23,-23 -12,0 -23,10 -23,23 0,13 11,23 23,23 13,0 23,-10 23,-23zm-38 0c0,-8 7,-15 15,-15 9,0 16,7 16,15 0,8 -7,15 -16,15 -8,0 -15,-7 -15,-15z"/>
   <path class="fil6" d="M178 147c2,0 4,-2 4,-4 0,-2 -2,-4 -4,-4l-2 0c-1,0 -3,0 -4,0 -2,1 -4,3 -3,5 0,2 2,3 4,3 0,0 0,0 0,0 1,0 2,0 3,0l2 0 0 0z"/>
   <path class="fil6" d="M165 258c0,0 0,0 0,0l-5 0c-3,0 -4,2 -4,4 0,2 1,4 4,4 0,0 0,0 0,0l5 0c2,0 4,-2 4,-4 0,-2 -2,-4 -4,-4z"/>
   <path class="fil6" d="M183 198c2,0 4,-1 4,-4 0,-2 -2,-4 -4,-4l-6 0c-2,0 -4,2 -4,4 0,3 2,4 4,4l6 0z"/>
   <path class="fil6" d="M153 157c1,0 1,1 2,1 1,0 3,-1 3,-2 1,-1 2,-2 3,-3 2,-2 2,-4 1,-6 -2,-2 -4,-2 -6,0 -1,1 -3,3 -4,4 -1,2 -1,5 1,6z"/>
   <path class="fil6" d="M186 258c0,0 0,0 0,0l-6 0c-2,0 -3,2 -3,4 0,2 1,4 4,4 0,0 0,0 0,0l5 0c2,0 4,-2 4,-4 0,-2 -2,-4 -4,-4z"/>
   <path class="fil6" d="M144 258c0,0 0,0 0,0l-5 0c-3,0 -4,2 -4,4 0,2 1,4 4,4 0,0 0,0 0,0l5 0c2,0 4,-2 4,-4 0,-2 -2,-4 -4,-4z"/>
   <path class="fil6" d="M162 194c2,0 3,0 4,-2 1,-1 0,-4 -1,-5 -2,-1 -3,-2 -4,-3 -2,-1 -4,-1 -6,0 -1,2 -1,4 1,6 1,1 3,3 4,4 1,0 2,0 2,0z"/>
   <path class="fil6" d="M155 173c0,-2 -1,-3 -1,-4l0 -1c0,-2 -1,-4 -4,-4 0,0 0,0 0,0 -2,0 -4,2 -4,4l0 1c0,2 1,3 1,5 0,2 2,4 4,4 0,0 0,0 1,-1 2,0 3,-2 3,-4z"/>
   <path class="fil6" d="M204 198c2,0 4,-1 4,-4 0,-2 -2,-4 -4,-4l-6 0c-2,0 -4,2 -4,4 0,3 2,4 4,4l6 0z"/>
   <path class="fil6" d="M265 206c1,0 2,-1 3,-2 1,-2 1,-4 -1,-6 -1,-1 -3,-2 -5,-3 -1,-1 -4,0 -5,2 -1,2 0,4 2,5 1,1 2,2 3,3 1,0 2,1 3,1z"/>
   <path class="fil6" d="M248 257c-1,1 -3,1 -4,1l-1 0c-2,0 -4,1 -4,4 0,2 2,4 4,4 0,0 0,0 0,0l1 0c2,0 4,-1 5,-1 2,0 4,-2 4,-4 -1,-2 -3,-4 -5,-4z"/>
   <path class="fil6" d="M264 249c-1,2 -2,2 -3,3 -2,2 -2,4 -1,6 1,1 2,2 3,2 1,0 2,-1 2,-1 2,-1 4,-2 5,-4 2,-1 2,-4 0,-5 -1,-2 -4,-2 -6,-1z"/>
   <path class="fil6" d="M278 230c-2,0 -4,1 -5,3 0,2 -1,3 -1,5 -1,2 0,4 2,5 1,0 1,0 2,0 1,0 3,-1 3,-2 1,-2 2,-4 2,-6 0,-2 -1,-4 -3,-5z"/>
   <path class="fil6" d="M273 210c-2,1 -3,3 -2,5 1,2 1,3 2,5 0,1 2,3 3,3 1,0 1,0 1,-1 3,0 4,-2 3,-4 0,-2 -1,-4 -2,-6 -1,-2 -3,-3 -5,-2z"/>
   <path class="fil6" d="M225 198c2,0 4,-1 4,-4 0,-2 -2,-4 -4,-4l-6 0c-2,0 -4,2 -4,4 0,3 2,4 4,4l6 0z"/>
   <path class="fil6" d="M207 258c0,0 0,0 0,0l-6 0c-2,0 -4,2 -3,4 0,2 1,4 3,4 0,0 0,0 0,0l6 0c2,0 4,-2 4,-4 0,-2 -2,-4 -4,-4z"/>
   <path class="fil6" d="M244 198c0,0 1,0 1,0 0,0 0,0 0,0 3,0 4,-1 4,-3 1,-3 -1,-5 -3,-5 -1,0 -1,0 -2,0l-4 0c-2,0 -4,2 -4,4 0,3 2,4 4,4l4 0 0 0z"/>
   <path class="fil6" d="M228 258c0,0 0,0 0,0l-6 0c-2,0 -4,2 -4,4 0,2 2,4 4,4 0,0 0,0 0,0l6 0c2,0 4,-2 4,-4 0,-3 -2,-4 -4,-4z"/>
   <g>
   </g>
   <g>
   </g>
   <g>
   </g>
   <g>
   </g>
   <g>
   </g>
   <g>
   </g>
   <g>
   </g>
   <g>
   </g>
   <g>
   </g>
   <g>
   </g>
   <g>
   </g>
   <g>
   </g>
   <g>
   </g>
   <g>
   </g>
   <g>
   </g>
  </g>
 </g>
</svg>
